<svg width="97" height="19" viewBox="0 0 97 19" fill="none" xmlns="http://www.w3.org/2000/svg">
<rect x="6" y="5" width="2" height="2" fill="white"/>
<rect x="8" y="7" width="2" height="2" fill="white"/>
<rect x="6" y="9" width="2" height="2" fill="white"/>
<path d="M19 4H17V3H4V13H9V15H2V1H19V4ZM13 13V15H11V13H13ZM19 15H17V6H19V15ZM16 15H14V13H16V15Z" fill="#7052FF"/>
<path d="M0 16H21V18H0V16Z" fill="#7052FF"/>
<rect x="11" y="11" width="2" height="4" fill="white"/>
<rect x="14" y="9" width="2" height="6" fill="white"/>
<rect x="17" y="6" width="2" height="9" fill="white"/>
<path d="M26.125 15V4.875H28.25V15H26.125ZM30.2924 15V9.55H29.2674V7.5H31.3674V8.725H31.8924C32.184 8.29167 32.5507 7.95833 32.9924 7.725C33.434 7.48333 33.984 7.3625 34.6424 7.3625C35.684 7.3625 36.4882 7.65 37.0549 8.225C37.6299 8.79167 37.9174 9.55417 37.9174 10.5125V15H35.8424V10.9C35.8424 10.35 35.6924 9.93333 35.3924 9.65C35.1007 9.35833 34.6715 9.2125 34.1049 9.2125C33.5382 9.2125 33.1049 9.35833 32.8049 9.65C32.5132 9.93333 32.3674 10.35 32.3674 10.9V15H30.2924ZM41.4357 15C40.9024 15 40.4857 14.8667 40.1857 14.6C39.8941 14.325 39.7482 13.9083 39.7482 13.35V9.125H38.4607V7.5H39.7732V5.25H41.7982V7.5H43.5357V9.125H41.8232V13.375H43.7107V15H41.4357ZM47.9572 15.15C47.1489 15.15 46.4447 14.9917 45.8447 14.675C45.2447 14.35 44.7822 13.8958 44.4572 13.3125C44.1322 12.7208 43.9697 12.025 43.9697 11.225C43.9697 10.425 44.1281 9.7375 44.4447 9.1625C44.7614 8.57917 45.2114 8.13333 45.7947 7.825C46.3864 7.50833 47.0822 7.35 47.8822 7.35C48.6656 7.35 49.3364 7.5 49.8947 7.8C50.4614 8.1 50.8947 8.52917 51.1947 9.0875C51.4947 9.64583 51.6447 10.3125 51.6447 11.0875V11.7875H45.9572C46.0406 12.3458 46.2531 12.7708 46.5947 13.0625C46.9364 13.3542 47.3864 13.5 47.9447 13.5C48.3864 13.5 48.7364 13.425 48.9947 13.275C49.2531 13.125 49.4364 12.8958 49.5447 12.5875H51.6197C51.4531 13.3875 51.0489 14.0167 50.4072 14.475C49.7656 14.925 48.9489 15.15 47.9572 15.15ZM46.0072 10.4125H49.6572C49.5906 9.9375 49.4072 9.58333 49.1072 9.35C48.8072 9.10833 48.4031 8.9875 47.8947 8.9875C47.3864 8.9875 46.9697 9.10833 46.6447 9.35C46.3281 9.59167 46.1156 9.94583 46.0072 10.4125ZM52.4658 15V4.5H54.5408V15H52.4658ZM56.1098 15V7.5H58.1848V15H56.1098ZM57.1473 6.7625C56.8306 6.7625 56.5598 6.65417 56.3348 6.4375C56.1181 6.2125 56.0098 5.94167 56.0098 5.625C56.0098 5.30833 56.1181 5.04167 56.3348 4.825C56.5598 4.6 56.8306 4.4875 57.1473 4.4875C57.4639 4.4875 57.7306 4.6 57.9473 4.825C58.1723 5.04167 58.2848 5.30833 58.2848 5.625C58.2848 5.94167 58.1723 6.2125 57.9473 6.4375C57.7306 6.65417 57.4639 6.7625 57.1473 6.7625ZM59.9537 15V9.55H58.9287V7.5H61.0287V8.725H61.5537C61.8454 8.29167 62.212 7.95833 62.6537 7.725C63.0954 7.48333 63.6454 7.3625 64.3037 7.3625C65.3454 7.3625 66.1495 7.65 66.7162 8.225C67.2912 8.79167 67.5787 9.55417 67.5787 10.5125V15H65.5037V10.9C65.5037 10.35 65.3537 9.93333 65.0537 9.65C64.762 9.35833 64.3329 9.2125 63.7662 9.2125C63.1995 9.2125 62.7662 9.35833 62.4662 9.65C62.1745 9.93333 62.0287 10.35 62.0287 10.9V15H59.9537ZM72.0096 15.15C70.9096 15.15 70.0387 14.9208 69.3971 14.4625C68.7637 13.9958 68.4221 13.3458 68.3721 12.5125H70.3721C70.4387 12.8708 70.6096 13.1375 70.8846 13.3125C71.1679 13.4875 71.5721 13.575 72.0971 13.575C72.9554 13.575 73.3846 13.3375 73.3846 12.8625C73.3846 12.6708 73.3179 12.5208 73.1846 12.4125C73.0596 12.2958 72.8471 12.2083 72.5471 12.15L70.8721 11.825C69.3721 11.5333 68.6221 10.8292 68.6221 9.7125C68.6221 8.99583 68.9096 8.425 69.4846 8C70.0596 7.56667 70.8554 7.35 71.8721 7.35C72.8804 7.35 73.6804 7.57083 74.2721 8.0125C74.8637 8.45417 75.1887 9.07083 75.2471 9.8625H73.2471C73.1554 9.5125 72.9929 9.25833 72.7596 9.1C72.5262 8.94167 72.1887 8.8625 71.7471 8.8625C71.3637 8.8625 71.0721 8.92083 70.8721 9.0375C70.6721 9.14583 70.5721 9.3125 70.5721 9.5375C70.5721 9.69583 70.6346 9.82917 70.7596 9.9375C70.8846 10.0458 71.0762 10.125 71.3346 10.175L73.0471 10.5C73.8304 10.6583 74.4054 10.9125 74.7721 11.2625C75.1387 11.6125 75.3221 12.0875 75.3221 12.6875C75.3221 13.4625 75.0346 14.0667 74.4596 14.5C73.8929 14.9333 73.0762 15.15 72.0096 15.15ZM76.0879 15V7.5H78.1629V15H76.0879ZM77.1254 6.7625C76.8087 6.7625 76.5379 6.65417 76.3129 6.4375C76.0962 6.2125 75.9879 5.94167 75.9879 5.625C75.9879 5.30833 76.0962 5.04167 76.3129 4.825C76.5379 4.6 76.8087 4.4875 77.1254 4.4875C77.4421 4.4875 77.7087 4.6 77.9254 4.825C78.1504 5.04167 78.2629 5.30833 78.2629 5.625C78.2629 5.94167 78.1504 6.2125 77.9254 6.4375C77.7087 6.65417 77.4421 6.7625 77.1254 6.7625ZM82.5693 15.15C81.8027 15.15 81.1485 14.9875 80.6068 14.6625C80.0735 14.3375 79.6693 13.8833 79.3943 13.3C79.1193 12.7083 78.9818 12.025 78.9818 11.25C78.9818 10.4667 79.1152 9.78333 79.3818 9.2C79.6485 8.60833 80.036 8.15417 80.5443 7.8375C81.061 7.5125 81.6777 7.35 82.3943 7.35C82.9443 7.35 83.4152 7.45417 83.8068 7.6625C84.2068 7.8625 84.5152 8.15 84.7318 8.525H84.7818V4.5H86.8568V12.95H87.8818V15H85.7818V13.775H85.2568C84.9902 14.2083 84.6318 14.5458 84.1818 14.7875C83.7402 15.0292 83.2027 15.15 82.5693 15.15ZM82.9568 13.35C83.5152 13.35 83.9568 13.1958 84.2818 12.8875C84.6152 12.5708 84.7818 12.1375 84.7818 11.5875V10.9125C84.7818 10.3625 84.6152 9.93333 84.2818 9.625C83.9568 9.30833 83.5152 9.15 82.9568 9.15C82.3235 9.15 81.8485 9.3375 81.5318 9.7125C81.2152 10.0875 81.0568 10.6 81.0568 11.25C81.0568 11.9 81.2152 12.4125 81.5318 12.7875C81.8485 13.1625 82.3235 13.35 82.9568 13.35ZM92.1727 15.15C91.3643 15.15 90.6602 14.9917 90.0602 14.675C89.4602 14.35 88.9977 13.8958 88.6727 13.3125C88.3477 12.7208 88.1852 12.025 88.1852 11.225C88.1852 10.425 88.3435 9.7375 88.6602 9.1625C88.9768 8.57917 89.4268 8.13333 90.0102 7.825C90.6018 7.50833 91.2977 7.35 92.0977 7.35C92.881 7.35 93.5518 7.5 94.1102 7.8C94.6768 8.1 95.1102 8.52917 95.4102 9.0875C95.7102 9.64583 95.8602 10.3125 95.8602 11.0875V11.7875H90.1727C90.256 12.3458 90.4685 12.7708 90.8102 13.0625C91.1518 13.3542 91.6018 13.5 92.1602 13.5C92.6018 13.5 92.9518 13.425 93.2102 13.275C93.4685 13.125 93.6518 12.8958 93.7602 12.5875H95.8352C95.6685 13.3875 95.2643 14.0167 94.6227 14.475C93.981 14.925 93.1643 15.15 92.1727 15.15ZM90.2227 10.4125H93.8727C93.806 9.9375 93.6227 9.58333 93.3227 9.35C93.0227 9.10833 92.6185 8.9875 92.1102 8.9875C91.6018 8.9875 91.1852 9.10833 90.8602 9.35C90.5435 9.59167 90.331 9.94583 90.2227 10.4125Z" fill="white"/>
</svg>
